<svg width="300" height="97" viewBox="0 0 300 97" fill="none" xmlns="http://www.w3.org/2000/svg">
<g filter="url(#filter0_i_1_3)">
<path d="M65.9103 25.1018C59.7692 18.9675 51.604 15.5893 42.9191 15.5893C34.2341 15.5893 26.069 18.9675 19.9279 25.1018C13.7867 31.2359 10.4046 39.3918 10.4046 48.067C10.4046 56.7421 13.7867 64.898 19.9279 71.0321C26.069 77.1664 34.2341 80.5446 42.9191 80.5446C51.604 80.5446 59.7692 77.1664 65.9103 71.0321C72.0515 64.898 75.4335 56.7421 75.4335 48.067C75.4335 39.3918 72.0515 31.2359 65.9103 25.1018ZM41.8814 17.7399V31.2904C38.2857 31.1682 34.7687 30.4146 31.4823 29.0834C31.8635 28.1135 32.2755 27.1831 32.7185 26.2983C35.2506 21.2398 38.4717 18.2462 41.8814 17.7399ZM41.8814 33.3644V47.0304H28.2279C28.3224 41.2482 29.2056 35.7493 30.7757 31.0341C34.2868 32.4464 38.0426 33.2423 41.8814 33.3644ZM41.8814 49.1035V62.7695C38.0426 62.8916 34.2868 63.6876 30.7756 65.0998C29.2054 60.3847 28.3223 54.8857 28.2278 49.1035H41.8814ZM41.8814 64.8437V78.3942C38.4717 77.8877 35.2506 74.8941 32.7185 69.8357C32.2756 68.9509 31.8635 68.0204 31.4823 67.0506C34.7687 65.7195 38.2857 64.9657 41.8814 64.8437ZM30.8622 25.3711C30.4053 26.2837 29.98 27.2417 29.5859 28.2386C27.5052 27.2253 25.5353 25.9714 23.7176 24.4937C27.2235 21.6391 31.3749 19.5477 35.917 18.4756C34.0419 20.1187 32.3304 22.4382 30.8622 25.3711ZM22.134 25.8764C24.2069 27.5994 26.4706 29.0461 28.8701 30.1948C27.1918 35.1641 26.2488 40.9556 26.1523 47.0304H12.4997C12.7805 38.6993 16.4325 31.208 22.134 25.8764ZM12.4997 49.1035H26.1523C26.2487 55.1783 27.1918 60.9699 28.8701 65.9391C26.4708 67.0878 24.2071 68.5345 22.134 70.2575C16.4325 64.9259 12.7805 57.4346 12.4997 49.1035ZM23.7176 71.6402C25.5353 70.1626 27.505 68.9085 29.5859 67.8953C29.9801 68.8921 30.4054 69.8502 30.8622 70.7628C32.3303 73.6959 34.0418 76.0152 35.9168 77.6584C31.3749 76.5862 27.2235 74.4948 23.7176 71.6402ZM43.9568 78.452V17.6819C60.2621 18.2305 73.3581 31.6489 73.3581 48.067C73.3581 64.485 60.2621 77.9034 43.9568 78.452Z" fill="#A050E6" fill-opacity="0.3"/>
<path d="M65.9103 25.1018C59.7692 18.9675 51.604 15.5893 42.9191 15.5893C34.2341 15.5893 26.069 18.9675 19.9279 25.1018C13.7867 31.2359 10.4046 39.3918 10.4046 48.067C10.4046 56.7421 13.7867 64.898 19.9279 71.0321C26.069 77.1664 34.2341 80.5446 42.9191 80.5446C51.604 80.5446 59.7692 77.1664 65.9103 71.0321C72.0515 64.898 75.4335 56.7421 75.4335 48.067C75.4335 39.3918 72.0515 31.2359 65.9103 25.1018ZM41.8814 17.7399V31.2904C38.2857 31.1682 34.7687 30.4146 31.4823 29.0834C31.8635 28.1135 32.2755 27.1831 32.7185 26.2983C35.2506 21.2398 38.4717 18.2462 41.8814 17.7399ZM41.8814 33.3644V47.0304H28.2279C28.3224 41.2482 29.2056 35.7493 30.7757 31.0341C34.2868 32.4464 38.0426 33.2423 41.8814 33.3644ZM41.8814 49.1035V62.7695C38.0426 62.8916 34.2868 63.6876 30.7756 65.0998C29.2054 60.3847 28.3223 54.8857 28.2278 49.1035H41.8814ZM41.8814 64.8437V78.3942C38.4717 77.8877 35.2506 74.8941 32.7185 69.8357C32.2756 68.9509 31.8635 68.0204 31.4823 67.0506C34.7687 65.7195 38.2857 64.9657 41.8814 64.8437ZM30.8622 25.3711C30.4053 26.2837 29.98 27.2417 29.5859 28.2386C27.5052 27.2253 25.5353 25.9714 23.7176 24.4937C27.2235 21.6391 31.3749 19.5477 35.917 18.4756C34.0419 20.1187 32.3304 22.4382 30.8622 25.3711ZM22.134 25.8764C24.2069 27.5994 26.4706 29.0461 28.8701 30.1948C27.1918 35.1641 26.2488 40.9556 26.1523 47.0304H12.4997C12.7805 38.6993 16.4325 31.208 22.134 25.8764ZM12.4997 49.1035H26.1523C26.2487 55.1783 27.1918 60.9699 28.8701 65.9391C26.4708 67.0878 24.2071 68.5345 22.134 70.2575C16.4325 64.9259 12.7805 57.4346 12.4997 49.1035ZM23.7176 71.6402C25.5353 70.1626 27.505 68.9085 29.5859 67.8953C29.9801 68.8921 30.4054 69.8502 30.8622 70.7628C32.3303 73.6959 34.0418 76.0152 35.9168 77.6584C31.3749 76.5862 27.2235 74.4948 23.7176 71.6402ZM43.9568 78.452V17.6819C60.2621 18.2305 73.3581 31.6489 73.3581 48.067C73.3581 64.485 60.2621 77.9034 43.9568 78.452Z" fill="#445DEF" fill-opacity="0.7"/>
<path d="M64.3561 29.5334C59.9352 24.4381 53.852 21.0743 47.2269 20.0615C46.6599 19.9745 46.131 20.3635 46.0442 20.9293C45.9576 21.4952 46.3465 22.0241 46.913 22.1107C59.6228 24.0537 69.2074 35.2124 69.2074 48.067C69.2074 60.9215 59.6228 72.0803 46.9128 74.0231C46.3464 74.1097 45.9575 74.6387 46.0441 75.2045C46.1227 75.7172 46.5647 76.0843 47.0685 76.0843C47.1206 76.0843 47.1735 76.0804 47.2268 76.0723C53.8517 75.0595 59.9351 71.6958 64.3559 66.6004C68.8227 61.4523 71.2828 54.8703 71.2828 48.067C71.2828 41.2637 68.8227 34.6816 64.3561 29.5334Z" fill="#A050E6" fill-opacity="0.3"/>
<path d="M64.3561 29.5334C59.9352 24.4381 53.852 21.0743 47.2269 20.0615C46.6599 19.9745 46.131 20.3635 46.0442 20.9293C45.9576 21.4952 46.3465 22.0241 46.913 22.1107C59.6228 24.0537 69.2074 35.2124 69.2074 48.067C69.2074 60.9215 59.6228 72.0803 46.9128 74.0231C46.3464 74.1097 45.9575 74.6387 46.0441 75.2045C46.1227 75.7172 46.5647 76.0843 47.0685 76.0843C47.1206 76.0843 47.1735 76.0804 47.2268 76.0723C53.8517 75.0595 59.9351 71.6958 64.3559 66.6004C68.8227 61.4523 71.2828 54.8703 71.2828 48.067C71.2828 41.2637 68.8227 34.6816 64.3561 29.5334Z" fill="#445DEF" fill-opacity="0.7"/>
<path d="M47.0693 64.2684C47.1599 64.2684 47.2522 64.2563 47.3438 64.2313C54.6161 62.243 59.6952 55.596 59.6952 48.067C59.6952 40.5379 54.6161 33.8909 47.3438 31.9026C46.7911 31.751 46.2203 32.0766 46.069 32.6287C45.9176 33.1809 46.2432 33.7509 46.7959 33.9021C53.1689 35.6445 57.6198 41.4693 57.6198 48.067C57.6198 54.6646 53.1689 60.4895 46.7959 62.2319C46.2432 62.3831 45.9176 62.9532 46.069 63.5053C46.1952 63.9658 46.6133 64.2684 47.0693 64.2684Z" fill="#A050E6" fill-opacity="0.3"/>
<path d="M47.0693 64.2684C47.1599 64.2684 47.2522 64.2563 47.3438 64.2313C54.6161 62.243 59.6952 55.596 59.6952 48.067C59.6952 40.5379 54.6161 33.8909 47.3438 31.9026C46.7911 31.751 46.2203 32.0766 46.069 32.6287C45.9176 33.1809 46.2432 33.7509 46.7959 33.9021C53.1689 35.6445 57.6198 41.4693 57.6198 48.067C57.6198 54.6646 53.1689 60.4895 46.7959 62.2319C46.2432 62.3831 45.9176 62.9532 46.069 63.5053C46.1952 63.9658 46.6133 64.2684 47.0693 64.2684Z" fill="#445DEF" fill-opacity="0.7"/>
<path d="M46.4704 53.0891C46.0026 53.4198 45.8917 54.0668 46.2228 54.534C46.4251 54.8194 46.7454 54.9717 47.0707 54.9717C47.278 54.9717 47.4873 54.9098 47.6694 54.7811C49.8498 53.2395 51.1515 50.7296 51.1515 48.067C51.1515 45.4043 49.8498 42.8944 47.6694 41.3528C47.2016 41.0221 46.5538 41.1326 46.2228 41.6C45.8917 42.0673 46.0026 42.7142 46.4704 43.0449C48.1019 44.1984 49.0761 46.0759 49.0761 48.067C49.0761 50.058 48.1019 51.9355 46.4704 53.0891Z" fill="#A050E6" fill-opacity="0.3"/>
<path d="M46.4704 53.0891C46.0026 53.4198 45.8917 54.0668 46.2228 54.534C46.4251 54.8194 46.7454 54.9717 47.0707 54.9717C47.278 54.9717 47.4873 54.9098 47.6694 54.7811C49.8498 53.2395 51.1515 50.7296 51.1515 48.067C51.1515 45.4043 49.8498 42.8944 47.6694 41.3528C47.2016 41.0221 46.5538 41.1326 46.2228 41.6C45.8917 42.0673 46.0026 42.7142 46.4704 43.0449C48.1019 44.1984 49.0761 46.0759 49.0761 48.067C49.0761 50.058 48.1019 51.9355 46.4704 53.0891Z" fill="#445DEF" fill-opacity="0.7"/>
</g>
<mask id="path-5-outside-1_1_3" maskUnits="userSpaceOnUse" x="89.4393" y="34.8482" width="179" height="41" fill="black">
<rect fill="white" x="89.4393" y="34.8482" width="179" height="41"/>
<path d="M107.871 44.03C107.701 42.5906 107.009 41.4732 105.797 40.6778C104.585 39.8823 103.098 39.4846 101.337 39.4846C100.049 39.4846 98.9223 39.6929 97.9564 40.1096C96.9999 40.5262 96.2518 41.0992 95.712 41.8283C95.1817 42.5575 94.9166 43.3861 94.9166 44.3141C94.9166 45.0906 95.1012 45.7582 95.4706 46.317C95.8494 46.8662 96.3323 47.3255 96.9194 47.6948C97.5066 48.0546 98.1221 48.3529 98.766 48.5897C99.41 48.817 100.002 49.0016 100.542 49.1437L103.496 49.9391C104.254 50.138 105.097 50.4126 106.025 50.763C106.962 51.1134 107.857 51.5916 108.709 52.1976C109.571 52.7942 110.281 53.5613 110.84 54.4988C111.399 55.4363 111.678 56.5868 111.678 57.9505C111.678 59.5224 111.266 60.9429 110.442 62.2118C109.628 63.4808 108.435 64.4893 106.863 65.2374C105.3 65.9855 103.401 66.3596 101.167 66.3596C99.0833 66.3596 97.2793 66.0234 95.7547 65.351C94.2395 64.6787 93.0463 63.7412 92.1751 62.5385C91.3134 61.3359 90.8257 59.9391 90.712 58.3482H94.3484C94.4431 59.4467 94.8124 60.3558 95.4564 61.0755C96.1098 61.7857 96.9336 62.316 97.928 62.6664C98.9317 63.0073 100.011 63.1778 101.167 63.1778C102.511 63.1778 103.719 62.9599 104.789 62.5243C105.859 62.0793 106.706 61.4637 107.331 60.6778C107.956 59.8823 108.269 58.9543 108.269 57.8937C108.269 56.9278 107.999 56.1418 107.459 55.5357C106.919 54.9296 106.209 54.4372 105.329 54.0584C104.448 53.6796 103.496 53.3482 102.473 53.0641L98.8939 52.0414C96.6211 51.388 94.8219 50.4552 93.4961 49.2431C92.1704 48.031 91.5075 46.4448 91.5075 44.4846C91.5075 42.8558 91.9478 41.4353 92.8285 40.2232C93.7187 39.0016 94.9119 38.0546 96.4081 37.3823C97.9137 36.7005 99.5946 36.3596 101.451 36.3596C103.326 36.3596 104.992 36.6957 106.451 37.3681C107.909 38.031 109.064 38.9401 109.917 40.0954C110.778 41.2507 111.233 42.5622 111.28 44.03H107.871ZM120.14 57.8937L120.083 53.7459H120.765L130.311 44.03H134.458L124.288 54.3141H124.004L120.14 57.8937ZM117.015 65.8482V36.7573H120.368V65.8482H117.015ZM130.879 65.8482L122.356 55.0528L124.743 52.7232L135.14 65.8482H130.879ZM138.773 65.8482V44.03H142.125V65.8482H138.773ZM140.478 40.3937C139.824 40.3937 139.261 40.1711 138.787 39.726C138.323 39.281 138.091 38.7459 138.091 38.1209C138.091 37.4959 138.323 36.9609 138.787 36.5158C139.261 36.0707 139.824 35.8482 140.478 35.8482C141.131 35.8482 141.69 36.0707 142.154 36.5158C142.627 36.9609 142.864 37.4959 142.864 38.1209C142.864 38.7459 142.627 39.281 142.154 39.726C141.69 40.1711 141.131 40.3937 140.478 40.3937ZM151.618 36.7573V65.8482H148.265V36.7573H151.618ZM161.11 36.7573V65.8482H157.757V36.7573H161.11ZM183.613 44.03C183.443 42.5906 182.752 41.4732 181.539 40.6778C180.327 39.8823 178.841 39.4846 177.079 39.4846C175.791 39.4846 174.664 39.6929 173.699 40.1096C172.742 40.5262 171.994 41.0992 171.454 41.8283C170.924 42.5575 170.659 43.3861 170.659 44.3141C170.659 45.0906 170.843 45.7582 171.213 46.317C171.592 46.8662 172.074 47.3255 172.662 47.6948C173.249 48.0546 173.864 48.3529 174.508 48.5897C175.152 48.817 175.744 49.0016 176.284 49.1437L179.238 49.9391C179.996 50.138 180.839 50.4126 181.767 50.763C182.704 51.1134 183.599 51.5916 184.451 52.1976C185.313 52.7942 186.023 53.5613 186.582 54.4988C187.141 55.4363 187.42 56.5868 187.42 57.9505C187.42 59.5224 187.008 60.9429 186.184 62.2118C185.37 63.4808 184.177 64.4893 182.605 65.2374C181.042 65.9855 179.144 66.3596 176.909 66.3596C174.825 66.3596 173.021 66.0234 171.497 65.351C169.982 64.6787 168.789 63.7412 167.917 62.5385C167.056 61.3359 166.568 59.9391 166.454 58.3482H170.091C170.185 59.4467 170.555 60.3558 171.199 61.0755C171.852 61.7857 172.676 62.316 173.67 62.6664C174.674 63.0073 175.753 63.1778 176.909 63.1778C178.253 63.1778 179.461 62.9599 180.531 62.5243C181.601 62.0793 182.449 61.4637 183.074 60.6778C183.699 59.8823 184.011 58.9543 184.011 57.8937C184.011 56.9278 183.741 56.1418 183.201 55.5357C182.662 54.9296 181.951 54.4372 181.071 54.0584C180.19 53.6796 179.238 53.3482 178.216 53.0641L174.636 52.0414C172.363 51.388 170.564 50.4552 169.238 49.2431C167.913 48.031 167.25 46.4448 167.25 44.4846C167.25 42.8558 167.69 41.4353 168.571 40.2232C169.461 39.0016 170.654 38.0546 172.15 37.3823C173.656 36.7005 175.337 36.3596 177.193 36.3596C179.068 36.3596 180.735 36.6957 182.193 37.3681C183.651 38.031 184.807 38.9401 185.659 40.0954C186.521 41.2507 186.975 42.5622 187.022 44.03H183.613ZM197.701 65.8482L191.053 44.03H194.576L199.292 60.7346H199.519L204.178 44.03H207.757L212.36 60.6778H212.587L217.303 44.03H220.826L214.178 65.8482H210.882L206.11 49.0868H205.769L200.996 65.8482H197.701ZM231.678 66.3596C230.295 66.3596 229.041 66.0992 227.914 65.5783C226.787 65.048 225.892 64.2857 225.229 63.2914C224.566 62.2876 224.235 61.0755 224.235 59.655C224.235 58.405 224.481 57.3918 224.973 56.6153C225.466 55.8293 226.124 55.2137 226.948 54.7687C227.772 54.3236 228.681 53.9921 229.675 53.7743C230.679 53.5471 231.687 53.3671 232.701 53.2346C234.026 53.0641 235.101 52.9363 235.925 52.851C236.758 52.7563 237.365 52.6001 237.743 52.3823C238.132 52.1645 238.326 51.7857 238.326 51.2459V51.1323C238.326 49.7308 237.942 48.6418 237.175 47.8653C236.418 47.0887 235.267 46.7005 233.723 46.7005C232.123 46.7005 230.868 47.0509 229.959 47.7516C229.05 48.4524 228.411 49.2005 228.042 49.9959L224.86 48.8596C225.428 47.5338 226.186 46.5016 227.132 45.763C228.089 45.0149 229.131 44.494 230.257 44.2005C231.394 43.8974 232.511 43.7459 233.61 43.7459C234.311 43.7459 235.115 43.8312 236.025 44.0016C236.943 44.1626 237.829 44.4988 238.681 45.0101C239.543 45.5215 240.257 46.2933 240.826 47.3255C241.394 48.3577 241.678 49.7403 241.678 51.4732V65.8482H238.326V62.8937H238.155C237.928 63.3671 237.549 63.8738 237.019 64.4135C236.489 64.9533 235.783 65.4126 234.902 65.7914C234.022 66.1702 232.947 66.3596 231.678 66.3596ZM232.189 63.3482C233.515 63.3482 234.632 63.0878 235.542 62.567C236.46 62.0461 237.151 61.3738 237.615 60.5499C238.089 59.726 238.326 58.8596 238.326 57.9505V54.8823C238.184 55.0528 237.871 55.209 237.388 55.351C236.915 55.4836 236.365 55.602 235.74 55.7062C235.125 55.8009 234.524 55.8861 233.936 55.9618C233.359 56.0281 232.89 56.0849 232.53 56.1323C231.659 56.2459 230.845 56.4306 230.087 56.6863C229.339 56.9325 228.733 57.3065 228.269 57.8084C227.814 58.3009 227.587 58.9732 227.587 59.8255C227.587 60.9903 228.018 61.8709 228.88 62.4675C229.751 63.0546 230.854 63.3482 232.189 63.3482ZM247.797 74.03V44.03H251.035V47.4959H251.433C251.679 47.1171 252.02 46.6342 252.456 46.0471C252.901 45.4505 253.535 44.9202 254.359 44.4562C255.192 43.9827 256.319 43.7459 257.74 43.7459C259.577 43.7459 261.196 44.2052 262.598 45.1238C263.999 46.0423 265.093 47.3444 265.879 49.03C266.665 50.7156 267.058 52.7043 267.058 54.9959C267.058 57.3065 266.665 59.3094 265.879 61.0045C265.093 62.6901 264.004 63.9969 262.612 64.9249C261.22 65.8435 259.615 66.3028 257.797 66.3028C256.395 66.3028 255.273 66.0707 254.43 65.6067C253.587 65.1332 252.939 64.5982 252.484 64.0016C252.03 63.3956 251.679 62.8937 251.433 62.4959H251.149V74.03H247.797ZM251.092 54.9391C251.092 56.5868 251.333 58.0404 251.816 59.2999C252.299 60.5499 253.005 61.53 253.933 62.2403C254.861 62.941 255.997 63.2914 257.342 63.2914C258.744 63.2914 259.913 62.9221 260.851 62.1834C261.798 61.4353 262.508 60.4315 262.981 59.1721C263.464 57.9031 263.706 56.4921 263.706 54.9391C263.706 53.405 263.469 52.0224 262.995 50.7914C262.531 49.5509 261.826 48.5707 260.879 47.851C259.941 47.1219 258.762 46.7573 257.342 46.7573C255.978 46.7573 254.833 47.1029 253.905 47.7942C252.976 48.476 252.276 49.4325 251.802 50.6635C251.329 51.8851 251.092 53.3103 251.092 54.9391Z"/>
</mask>
<path d="M107.871 44.03C107.701 42.5906 107.009 41.4732 105.797 40.6778C104.585 39.8823 103.098 39.4846 101.337 39.4846C100.049 39.4846 98.9223 39.6929 97.9564 40.1096C96.9999 40.5262 96.2518 41.0992 95.712 41.8283C95.1817 42.5575 94.9166 43.3861 94.9166 44.3141C94.9166 45.0906 95.1012 45.7582 95.4706 46.317C95.8494 46.8662 96.3323 47.3255 96.9194 47.6948C97.5066 48.0546 98.1221 48.3529 98.766 48.5897C99.41 48.817 100.002 49.0016 100.542 49.1437L103.496 49.9391C104.254 50.138 105.097 50.4126 106.025 50.763C106.962 51.1134 107.857 51.5916 108.709 52.1976C109.571 52.7942 110.281 53.5613 110.84 54.4988C111.399 55.4363 111.678 56.5868 111.678 57.9505C111.678 59.5224 111.266 60.9429 110.442 62.2118C109.628 63.4808 108.435 64.4893 106.863 65.2374C105.3 65.9855 103.401 66.3596 101.167 66.3596C99.0833 66.3596 97.2793 66.0234 95.7547 65.351C94.2395 64.6787 93.0463 63.7412 92.1751 62.5385C91.3134 61.3359 90.8257 59.9391 90.712 58.3482H94.3484C94.4431 59.4467 94.8124 60.3558 95.4564 61.0755C96.1098 61.7857 96.9336 62.316 97.928 62.6664C98.9317 63.0073 100.011 63.1778 101.167 63.1778C102.511 63.1778 103.719 62.9599 104.789 62.5243C105.859 62.0793 106.706 61.4637 107.331 60.6778C107.956 59.8823 108.269 58.9543 108.269 57.8937C108.269 56.9278 107.999 56.1418 107.459 55.5357C106.919 54.9296 106.209 54.4372 105.329 54.0584C104.448 53.6796 103.496 53.3482 102.473 53.0641L98.8939 52.0414C96.6211 51.388 94.8219 50.4552 93.4961 49.2431C92.1704 48.031 91.5075 46.4448 91.5075 44.4846C91.5075 42.8558 91.9478 41.4353 92.8285 40.2232C93.7187 39.0016 94.9119 38.0546 96.4081 37.3823C97.9137 36.7005 99.5946 36.3596 101.451 36.3596C103.326 36.3596 104.992 36.6957 106.451 37.3681C107.909 38.031 109.064 38.9401 109.917 40.0954C110.778 41.2507 111.233 42.5622 111.28 44.03H107.871ZM120.14 57.8937L120.083 53.7459H120.765L130.311 44.03H134.458L124.288 54.3141H124.004L120.14 57.8937ZM117.015 65.8482V36.7573H120.368V65.8482H117.015ZM130.879 65.8482L122.356 55.0528L124.743 52.7232L135.14 65.8482H130.879ZM138.773 65.8482V44.03H142.125V65.8482H138.773ZM140.478 40.3937C139.824 40.3937 139.261 40.1711 138.787 39.726C138.323 39.281 138.091 38.7459 138.091 38.1209C138.091 37.4959 138.323 36.9609 138.787 36.5158C139.261 36.0707 139.824 35.8482 140.478 35.8482C141.131 35.8482 141.69 36.0707 142.154 36.5158C142.627 36.9609 142.864 37.4959 142.864 38.1209C142.864 38.7459 142.627 39.281 142.154 39.726C141.69 40.1711 141.131 40.3937 140.478 40.3937ZM151.618 36.7573V65.8482H148.265V36.7573H151.618ZM161.11 36.7573V65.8482H157.757V36.7573H161.11ZM183.613 44.03C183.443 42.5906 182.752 41.4732 181.539 40.6778C180.327 39.8823 178.841 39.4846 177.079 39.4846C175.791 39.4846 174.664 39.6929 173.699 40.1096C172.742 40.5262 171.994 41.0992 171.454 41.8283C170.924 42.5575 170.659 43.3861 170.659 44.3141C170.659 45.0906 170.843 45.7582 171.213 46.317C171.592 46.8662 172.074 47.3255 172.662 47.6948C173.249 48.0546 173.864 48.3529 174.508 48.5897C175.152 48.817 175.744 49.0016 176.284 49.1437L179.238 49.9391C179.996 50.138 180.839 50.4126 181.767 50.763C182.704 51.1134 183.599 51.5916 184.451 52.1976C185.313 52.7942 186.023 53.5613 186.582 54.4988C187.141 55.4363 187.42 56.5868 187.42 57.9505C187.42 59.5224 187.008 60.9429 186.184 62.2118C185.37 63.4808 184.177 64.4893 182.605 65.2374C181.042 65.9855 179.144 66.3596 176.909 66.3596C174.825 66.3596 173.021 66.0234 171.497 65.351C169.982 64.6787 168.789 63.7412 167.917 62.5385C167.056 61.3359 166.568 59.9391 166.454 58.3482H170.091C170.185 59.4467 170.555 60.3558 171.199 61.0755C171.852 61.7857 172.676 62.316 173.67 62.6664C174.674 63.0073 175.753 63.1778 176.909 63.1778C178.253 63.1778 179.461 62.9599 180.531 62.5243C181.601 62.0793 182.449 61.4637 183.074 60.6778C183.699 59.8823 184.011 58.9543 184.011 57.8937C184.011 56.9278 183.741 56.1418 183.201 55.5357C182.662 54.9296 181.951 54.4372 181.071 54.0584C180.19 53.6796 179.238 53.3482 178.216 53.0641L174.636 52.0414C172.363 51.388 170.564 50.4552 169.238 49.2431C167.913 48.031 167.25 46.4448 167.25 44.4846C167.25 42.8558 167.69 41.4353 168.571 40.2232C169.461 39.0016 170.654 38.0546 172.15 37.3823C173.656 36.7005 175.337 36.3596 177.193 36.3596C179.068 36.3596 180.735 36.6957 182.193 37.3681C183.651 38.031 184.807 38.9401 185.659 40.0954C186.521 41.2507 186.975 42.5622 187.022 44.03H183.613ZM197.701 65.8482L191.053 44.03H194.576L199.292 60.7346H199.519L204.178 44.03H207.757L212.36 60.6778H212.587L217.303 44.03H220.826L214.178 65.8482H210.882L206.11 49.0868H205.769L200.996 65.8482H197.701ZM231.678 66.3596C230.295 66.3596 229.041 66.0992 227.914 65.5783C226.787 65.048 225.892 64.2857 225.229 63.2914C224.566 62.2876 224.235 61.0755 224.235 59.655C224.235 58.405 224.481 57.3918 224.973 56.6153C225.466 55.8293 226.124 55.2137 226.948 54.7687C227.772 54.3236 228.681 53.9921 229.675 53.7743C230.679 53.5471 231.687 53.3671 232.701 53.2346C234.026 53.0641 235.101 52.9363 235.925 52.851C236.758 52.7563 237.365 52.6001 237.743 52.3823C238.132 52.1645 238.326 51.7857 238.326 51.2459V51.1323C238.326 49.7308 237.942 48.6418 237.175 47.8653C236.418 47.0887 235.267 46.7005 233.723 46.7005C232.123 46.7005 230.868 47.0509 229.959 47.7516C229.05 48.4524 228.411 49.2005 228.042 49.9959L224.86 48.8596C225.428 47.5338 226.186 46.5016 227.132 45.763C228.089 45.0149 229.131 44.494 230.257 44.2005C231.394 43.8974 232.511 43.7459 233.61 43.7459C234.311 43.7459 235.115 43.8312 236.025 44.0016C236.943 44.1626 237.829 44.4988 238.681 45.0101C239.543 45.5215 240.257 46.2933 240.826 47.3255C241.394 48.3577 241.678 49.7403 241.678 51.4732V65.8482H238.326V62.8937H238.155C237.928 63.3671 237.549 63.8738 237.019 64.4135C236.489 64.9533 235.783 65.4126 234.902 65.7914C234.022 66.1702 232.947 66.3596 231.678 66.3596ZM232.189 63.3482C233.515 63.3482 234.632 63.0878 235.542 62.567C236.46 62.0461 237.151 61.3738 237.615 60.5499C238.089 59.726 238.326 58.8596 238.326 57.9505V54.8823C238.184 55.0528 237.871 55.209 237.388 55.351C236.915 55.4836 236.365 55.602 235.74 55.7062C235.125 55.8009 234.524 55.8861 233.936 55.9618C233.359 56.0281 232.89 56.0849 232.53 56.1323C231.659 56.2459 230.845 56.4306 230.087 56.6863C229.339 56.9325 228.733 57.3065 228.269 57.8084C227.814 58.3009 227.587 58.9732 227.587 59.8255C227.587 60.9903 228.018 61.8709 228.88 62.4675C229.751 63.0546 230.854 63.3482 232.189 63.3482ZM247.797 74.03V44.03H251.035V47.4959H251.433C251.679 47.1171 252.02 46.6342 252.456 46.0471C252.901 45.4505 253.535 44.9202 254.359 44.4562C255.192 43.9827 256.319 43.7459 257.74 43.7459C259.577 43.7459 261.196 44.2052 262.598 45.1238C263.999 46.0423 265.093 47.3444 265.879 49.03C266.665 50.7156 267.058 52.7043 267.058 54.9959C267.058 57.3065 266.665 59.3094 265.879 61.0045C265.093 62.6901 264.004 63.9969 262.612 64.9249C261.22 65.8435 259.615 66.3028 257.797 66.3028C256.395 66.3028 255.273 66.0707 254.43 65.6067C253.587 65.1332 252.939 64.5982 252.484 64.0016C252.03 63.3956 251.679 62.8937 251.433 62.4959H251.149V74.03H247.797ZM251.092 54.9391C251.092 56.5868 251.333 58.0404 251.816 59.2999C252.299 60.5499 253.005 61.53 253.933 62.2403C254.861 62.941 255.997 63.2914 257.342 63.2914C258.744 63.2914 259.913 62.9221 260.851 62.1834C261.798 61.4353 262.508 60.4315 262.981 59.1721C263.464 57.9031 263.706 56.4921 263.706 54.9391C263.706 53.405 263.469 52.0224 262.995 50.7914C262.531 49.5509 261.826 48.5707 260.879 47.851C259.941 47.1219 258.762 46.7573 257.342 46.7573C255.978 46.7573 254.833 47.1029 253.905 47.7942C252.976 48.476 252.276 49.4325 251.802 50.6635C251.329 51.8851 251.092 53.3103 251.092 54.9391Z" fill="black"/>
<path d="M107.871 44.03L106.878 44.1476L106.983 45.03H107.871V44.03ZM105.797 40.6777L105.249 41.5138V41.5138L105.797 40.6777ZM97.9564 40.1096L97.5603 39.1914L97.557 39.1928L97.9564 40.1096ZM95.712 41.8283L94.9083 41.2333L94.9033 41.2401L95.712 41.8283ZM95.4706 46.317L94.6363 46.8684L94.6418 46.8766L94.6474 46.8847L95.4706 46.317ZM96.9194 47.6948L96.3869 48.5413L96.3969 48.5474L96.9194 47.6948ZM98.766 48.5897L98.4209 49.5283L98.4332 49.5327L98.766 48.5897ZM100.542 49.1437L100.802 48.178L100.796 48.1766L100.542 49.1437ZM103.496 49.9391L103.236 50.9047L103.242 50.9063L103.496 49.9391ZM106.025 50.763L105.671 51.6985L105.674 51.6997L106.025 50.763ZM108.709 52.1976L108.13 53.0127L108.14 53.0198L108.709 52.1976ZM110.84 54.4988L111.699 53.9868V53.9868L110.84 54.4988ZM110.442 62.2118L109.603 61.6673L109.601 61.6717L110.442 62.2118ZM106.863 65.2374L106.433 64.3344L106.431 64.3355L106.863 65.2374ZM95.7547 65.351L95.349 66.2651L95.3512 66.266L95.7547 65.351ZM92.1751 62.5385L91.3622 63.121L91.3653 63.1252L92.1751 62.5385ZM90.712 58.3482V57.3482H89.6381L89.7146 58.4195L90.712 58.3482ZM94.3484 58.3482L95.3447 58.2623L95.2659 57.3482H94.3484V58.3482ZM95.4564 61.0755L94.711 61.7423L94.7204 61.7525L95.4564 61.0755ZM97.928 62.6664L97.5956 63.6096L97.6064 63.6133L97.928 62.6664ZM104.789 62.5243L105.166 63.4506L105.173 63.4477L104.789 62.5243ZM107.331 60.6777L108.114 61.3002L108.118 61.2956L107.331 60.6777ZM107.459 55.5357L108.206 54.8706V54.8706L107.459 55.5357ZM105.329 54.0584L104.933 54.9771H104.933L105.329 54.0584ZM102.473 53.0641L102.199 54.0257L102.206 54.0276L102.473 53.0641ZM98.8939 52.0414L98.6176 53.0025L98.6191 53.0029L98.8939 52.0414ZM93.4961 49.2431L92.8214 49.9811H92.8214L93.4961 49.2431ZM92.8285 40.2232L92.0203 39.6343L92.0195 39.6354L92.8285 40.2232ZM96.4081 37.3823L96.818 38.2944L96.8206 38.2932L96.4081 37.3823ZM106.451 37.3681L106.032 38.2762L106.037 38.2785L106.451 37.3681ZM109.917 40.0954L109.112 40.689L109.115 40.6933L109.917 40.0954ZM111.28 44.03V45.03H112.313L112.28 43.9978L111.28 44.03ZM107.871 44.03L108.864 43.9124C108.659 42.1796 107.805 40.7992 106.346 39.8417L105.797 40.6777L105.249 41.5138C106.214 42.1472 106.742 43.0017 106.878 44.1476L107.871 44.03ZM105.797 40.6777L106.346 39.8417C104.939 38.9182 103.251 38.4846 101.337 38.4846V39.4846V40.4846C102.946 40.4846 104.232 40.8464 105.249 41.5138L105.797 40.6777ZM101.337 39.4846V38.4846C99.9427 38.4846 98.676 38.7101 97.5603 39.1914L97.9564 40.1096L98.3525 41.0278C99.1686 40.6757 100.156 40.4846 101.337 40.4846V39.4846ZM97.9564 40.1096L97.557 39.1928C96.4643 39.6688 95.5671 40.3434 94.9083 41.2333L95.712 41.8283L96.5158 42.4233C96.9365 41.8549 97.5355 41.3837 98.3558 41.0264L97.9564 40.1096ZM95.712 41.8283L94.9033 41.2401C94.2449 42.1455 93.9166 43.1814 93.9166 44.3141H94.9166H95.9166C95.9166 43.5908 96.1186 42.9694 96.5208 42.4165L95.712 41.8283ZM94.9166 44.3141H93.9166C93.9166 45.2547 94.1425 46.1213 94.6363 46.8684L95.4706 46.317L96.3048 45.7655C96.06 45.3952 95.9166 44.9266 95.9166 44.3141H94.9166ZM95.4706 46.317L94.6474 46.8847C95.1062 47.55 95.6897 48.1026 96.387 48.5413L96.9194 47.6948L97.4519 46.8483C96.9749 46.5483 96.5925 46.1824 96.2938 45.7492L95.4706 46.317ZM96.9194 47.6948L96.3969 48.5474C97.04 48.9416 97.7149 49.2687 98.421 49.5283L98.766 48.5897L99.1111 47.6511C98.5292 47.4372 97.9731 47.1677 97.442 46.8422L96.9194 47.6948ZM98.766 48.5897L98.4332 49.5327C99.0975 49.7671 99.7158 49.9604 100.287 50.1107L100.542 49.1437L100.796 48.1766C100.288 48.0428 99.7225 47.8668 99.0988 47.6467L98.766 48.5897ZM100.542 49.1437L100.282 50.1093L103.236 50.9047L103.496 49.9391L103.756 48.9735L100.802 48.178L100.542 49.1437ZM103.496 49.9391L103.242 50.9063C103.959 51.0944 104.768 51.3574 105.671 51.6985L106.025 50.763L106.378 49.8274C105.425 49.4678 104.549 49.1815 103.75 48.9719L103.496 49.9391ZM106.025 50.763L105.674 51.6997C106.527 52.0183 107.345 52.4547 108.13 53.0126L108.709 52.1976L109.289 51.3827C108.369 50.7285 107.397 50.2084 106.375 49.8263L106.025 50.763ZM108.709 52.1976L108.14 53.0198C108.879 53.5316 109.492 54.191 109.981 55.0107L110.84 54.4988L111.699 53.9868C111.07 52.9316 110.263 52.0569 109.278 51.3754L108.709 52.1976ZM110.84 54.4988L109.981 55.0107C110.427 55.7591 110.678 56.7225 110.678 57.9505H111.678H112.678C112.678 56.4512 112.37 55.1134 111.699 53.9868L110.84 54.4988ZM111.678 57.9505H110.678C110.678 59.3371 110.318 60.567 109.603 61.6673L110.442 62.2118L111.281 62.7564C112.214 61.3188 112.678 59.7078 112.678 57.9505H111.678ZM110.442 62.2118L109.601 61.6717C108.902 62.7606 107.863 63.6539 106.433 64.3344L106.863 65.2374L107.292 66.1404C109.006 65.3247 110.354 64.2009 111.284 62.752L110.442 62.2118ZM106.863 65.2374L106.431 64.3355C105.036 65.0031 103.294 65.3596 101.167 65.3596V66.3596V67.3596C103.509 67.3596 105.564 66.9679 107.294 66.1394L106.863 65.2374ZM101.167 66.3596V65.3596C99.1885 65.3596 97.5281 65.0402 96.1582 64.4361L95.7547 65.351L95.3512 66.266C97.0305 67.0066 98.978 67.3596 101.167 67.3596V66.3596ZM95.7547 65.351L96.1603 64.437C94.7872 63.8277 93.741 62.9956 92.9849 61.9519L92.1751 62.5385L91.3653 63.1252C92.3516 64.4868 93.6918 65.5297 95.349 66.2651L95.7547 65.351ZM92.1751 62.5385L92.988 61.9561C92.2422 60.9153 91.811 59.6986 91.7095 58.277L90.712 58.3482L89.7146 58.4195C89.8403 60.1796 90.3846 61.7565 91.3622 63.121L92.1751 62.5385ZM90.712 58.3482V59.3482H94.3484V58.3482V57.3482H90.712V58.3482ZM94.3484 58.3482L93.3521 58.4341C93.4626 59.7164 93.9028 60.8389 94.7111 61.7423L95.4564 61.0755L96.2016 60.4087C95.722 59.8727 95.4236 59.177 95.3447 58.2623L94.3484 58.3482ZM95.4564 61.0755L94.7204 61.7525C95.4946 62.594 96.4616 63.2099 97.5956 63.6095L97.928 62.6664L98.2603 61.7232C97.4057 61.4221 96.725 60.9774 96.1923 60.3984L95.4564 61.0755ZM97.928 62.6664L97.6064 63.6133C98.7226 63.9924 99.9117 64.1777 101.167 64.1777V63.1777V62.1777C100.111 62.1777 99.1409 62.0222 98.2495 61.7195L97.928 62.6664ZM101.167 63.1777V64.1777C102.62 64.1777 103.958 63.9422 105.166 63.4505L104.789 62.5243L104.412 61.5981C103.479 61.9777 102.403 62.1777 101.167 62.1777V63.1777ZM104.789 62.5243L105.173 63.4477C106.375 62.9477 107.369 62.2377 108.114 61.3001L107.331 60.6777L106.549 60.0554C106.044 60.6898 105.343 61.2108 104.405 61.601L104.789 62.5243ZM107.331 60.6777L108.118 61.2956C108.888 60.315 109.269 59.1667 109.269 57.8937H108.269H107.269C107.269 58.7419 107.025 59.4496 106.545 60.0599L107.331 60.6777ZM108.269 57.8937H109.269C109.269 56.7317 108.939 55.6935 108.206 54.8706L107.459 55.5357L106.712 56.2008C107.059 56.59 107.269 57.1238 107.269 57.8937H108.269ZM107.459 55.5357L108.206 54.8706C107.553 54.1373 106.715 53.566 105.724 53.1398L105.329 54.0584L104.933 54.9771C105.704 55.3084 106.286 55.722 106.712 56.2008L107.459 55.5357ZM105.329 54.0584L105.724 53.1398C104.797 52.7414 103.803 52.3955 102.741 52.1006L102.473 53.0641L102.206 54.0276C103.19 54.3009 104.098 54.6179 104.933 54.9771L105.329 54.0584ZM102.473 53.0641L102.748 52.1026L99.1686 51.0799L98.8939 52.0414L98.6191 53.0029L102.199 54.0256L102.473 53.0641ZM98.8939 52.0414L99.1702 51.0803C97.0007 50.4566 95.3527 49.5855 94.1709 48.5051L93.4961 49.2431L92.8214 49.9811C94.2911 51.3249 96.2416 52.3194 98.6176 53.0025L98.8939 52.0414ZM93.4961 49.2431L94.1709 48.5051C93.0726 47.5009 92.5075 46.1927 92.5075 44.4846H91.5075H90.5075C90.5075 46.6969 91.2682 48.5611 92.8214 49.9811L93.4961 49.2431ZM91.5075 44.4846H92.5075C92.5075 43.0476 92.8919 41.8372 93.6375 40.811L92.8285 40.2232L92.0195 39.6354C91.0038 41.0334 90.5075 42.664 90.5075 44.4846H91.5075ZM92.8285 40.2232L93.6367 40.8121C94.4158 39.7429 95.4664 38.9018 96.818 38.2944L96.4081 37.3823L95.9982 36.4702C94.3573 37.2075 93.0215 38.2603 92.0203 39.6343L92.8285 40.2232ZM96.4081 37.3823L96.8206 38.2932C98.1816 37.6769 99.7193 37.3596 101.451 37.3596V36.3596V35.3596C99.4699 35.3596 97.6459 35.724 95.9956 36.4713L96.4081 37.3823ZM101.451 36.3596V37.3596C103.205 37.3596 104.725 37.6737 106.032 38.2762L106.451 37.3681L106.869 36.46C105.26 35.7178 103.446 35.3596 101.451 35.3596V36.3596ZM106.451 37.3681L106.037 38.2785C107.358 38.8791 108.372 39.6862 109.112 40.689L109.917 40.0954L110.721 39.5017C109.757 38.1939 108.46 37.1828 106.864 36.4577L106.451 37.3681ZM109.917 40.0954L109.115 40.6933C109.852 41.6814 110.24 42.7947 110.281 44.0623L111.28 44.03L112.28 43.9978C112.226 42.3298 111.705 40.8199 110.718 39.4975L109.917 40.0954ZM111.28 44.03V43.03H107.871V44.03V45.03H111.28V44.03ZM120.14 57.8937L119.14 57.9074L119.171 60.1547L120.82 58.6272L120.14 57.8937ZM120.083 53.7459V52.7459H119.07L119.084 53.7596L120.083 53.7459ZM120.765 53.7459V54.7459H121.185L121.479 54.4468L120.765 53.7459ZM130.311 44.03V43.03H129.891L129.597 43.3292L130.311 44.03ZM134.458 44.03L135.17 44.7332L136.854 43.03H134.458V44.03ZM124.288 54.3141V55.3141H124.706L124.999 55.0173L124.288 54.3141ZM124.004 54.3141V53.3141H123.612L123.324 53.5806L124.004 54.3141ZM117.015 65.8482H116.015V66.8482H117.015V65.8482ZM117.015 36.7573V35.7573H116.015V36.7573H117.015ZM120.368 36.7573H121.368V35.7573H120.368V36.7573ZM120.368 65.8482V66.8482H121.368V65.8482H120.368ZM130.879 65.8482L130.094 66.4678L130.394 66.8482H130.879V65.8482ZM122.356 55.0527L121.658 54.3372L121.014 54.9659L121.571 55.6724L122.356 55.0527ZM124.743 52.7232L125.526 52.1022L124.838 51.2329L124.044 52.0076L124.743 52.7232ZM135.14 65.8482V66.8482H137.208L135.924 65.2272L135.14 65.8482ZM120.14 57.8937L121.14 57.88L121.083 53.7322L120.083 53.7459L119.084 53.7596L119.14 57.9074L120.14 57.8937ZM120.083 53.7459V54.7459H120.765V53.7459V52.7459H120.083V53.7459ZM120.765 53.7459L121.479 54.4468L131.024 44.7308L130.311 44.03L129.597 43.3292L120.052 53.0451L120.765 53.7459ZM130.311 44.03V45.03H134.458V44.03V43.03H130.311V44.03ZM134.458 44.03L133.747 43.3269L123.577 53.6109L124.288 54.3141L124.999 55.0173L135.17 44.7332L134.458 44.03ZM124.288 54.3141V53.3141H124.004V54.3141V55.3141H124.288V54.3141ZM124.004 54.3141L123.324 53.5806L119.461 57.1601L120.14 57.8937L120.82 58.6272L124.684 55.0477L124.004 54.3141ZM117.015 65.8482H118.015V36.7573H117.015H116.015V65.8482H117.015ZM117.015 36.7573V37.7573H120.368V36.7573V35.7573H117.015V36.7573ZM120.368 36.7573H119.368V65.8482H120.368H121.368V36.7573H120.368ZM120.368 65.8482V64.8482H117.015V65.8482V66.8482H120.368V65.8482ZM130.879 65.8482L131.664 65.2286L123.141 54.4331L122.356 55.0527L121.571 55.6724L130.094 66.4678L130.879 65.8482ZM122.356 55.0527L123.055 55.7683L125.441 53.4388L124.743 52.7232L124.044 52.0076L121.658 54.3372L122.356 55.0527ZM124.743 52.7232L123.959 53.3442L134.356 66.4692L135.14 65.8482L135.924 65.2272L125.526 52.1022L124.743 52.7232ZM135.14 65.8482V64.8482H130.879V65.8482V66.8482H135.14V65.8482ZM138.773 65.8482H137.773V66.8482H138.773V65.8482ZM138.773 44.03V43.03H137.773V44.03H138.773ZM142.125 44.03H143.125V43.03H142.125V44.03ZM142.125 65.8482V66.8482H143.125V65.8482H142.125ZM138.787 39.726L138.095 40.4478L138.102 40.4547L138.787 39.726ZM138.787 36.5158L138.102 35.7872L138.095 35.7941L138.787 36.5158ZM142.154 36.5158L141.462 37.2375L141.469 37.2444L142.154 36.5158ZM142.154 39.726L141.469 38.9974L141.462 39.0044L142.154 39.726ZM138.773 65.8482H139.773V44.03H138.773H137.773V65.8482H138.773ZM138.773 44.03V45.03H142.125V44.03V43.03H138.773V44.03ZM142.125 44.03H141.125V65.8482H142.125H143.125V44.03H142.125ZM142.125 65.8482V64.8482H138.773V65.8482V66.8482H142.125V65.8482ZM140.478 40.3937V39.3937C140.077 39.3937 139.759 39.2671 139.472 38.9974L138.787 39.726L138.102 40.4547C138.762 41.0751 139.571 41.3937 140.478 41.3937V40.3937ZM138.787 39.726L139.48 39.0044C139.206 38.7418 139.091 38.4648 139.091 38.1209H138.091H137.091C137.091 39.0271 137.441 39.8202 138.095 40.4477L138.787 39.726ZM138.091 38.1209H139.091C139.091 37.7771 139.206 37.5001 139.48 37.2375L138.787 36.5158L138.095 35.7941C137.441 36.4217 137.091 37.2148 137.091 38.1209H138.091ZM138.787 36.5158L139.472 37.2444C139.759 36.9748 140.077 36.8482 140.478 36.8482V35.8482V34.8482C139.571 34.8482 138.762 35.1667 138.102 35.7872L138.787 36.5158ZM140.478 35.8482V36.8482C140.878 36.8482 141.187 36.9742 141.462 37.2375L142.154 36.5158L142.846 35.7941C142.192 35.1673 141.384 34.8482 140.478 34.8482V35.8482ZM142.154 36.5158L141.469 37.2444C141.75 37.509 141.864 37.784 141.864 38.1209H142.864H143.864C143.864 37.2079 143.504 36.4128 142.839 35.7872L142.154 36.5158ZM142.864 38.1209H141.864C141.864 38.4579 141.75 38.7329 141.469 38.9974L142.154 39.726L142.839 40.4547C143.504 39.8291 143.864 39.034 143.864 38.1209H142.864ZM142.154 39.726L141.462 39.0044C141.187 39.2676 140.878 39.3937 140.478 39.3937V40.3937V41.3937C141.384 41.3937 142.192 41.0746 142.846 40.4477L142.154 39.726ZM151.618 36.7573H152.618V35.7573H151.618V36.7573ZM151.618 65.8482V66.8482H152.618V65.8482H151.618ZM148.265 65.8482H147.265V66.8482H148.265V65.8482ZM148.265 36.7573V35.7573H147.265V36.7573H148.265ZM151.618 36.7573H150.618V65.8482H151.618H152.618V36.7573H151.618ZM151.618 65.8482V64.8482H148.265V65.8482V66.8482H151.618V65.8482ZM148.265 65.8482H149.265V36.7573H148.265H147.265V65.8482H148.265ZM148.265 36.7573V37.7573H151.618V36.7573V35.7573H148.265V36.7573ZM161.11 36.7573H162.11V35.7573H161.11V36.7573ZM161.11 65.8482V66.8482H162.11V65.8482H161.11ZM157.757 65.8482H156.757V66.8482H157.757V65.8482ZM157.757 36.7573V35.7573H156.757V36.7573H157.757ZM161.11 36.7573H160.11V65.8482H161.11H162.11V36.7573H161.11ZM161.11 65.8482V64.8482H157.757V65.8482V66.8482H161.11V65.8482ZM157.757 65.8482H158.757V36.7573H157.757H156.757V65.8482H157.757ZM157.757 36.7573V37.7573H161.11V36.7573V35.7573H157.757V36.7573ZM183.613 44.03L182.62 44.1476L182.725 45.03H183.613V44.03ZM181.539 40.6777L180.991 41.5138V41.5138L181.539 40.6777ZM173.699 40.1096L173.302 39.1914L173.299 39.1928L173.699 40.1096ZM171.454 41.8283L170.65 41.2333L170.645 41.2401L171.454 41.8283ZM171.213 46.317L170.379 46.8684L170.384 46.8766L170.39 46.8847L171.213 46.317ZM172.662 47.6948L172.129 48.5413L172.139 48.5474L172.662 47.6948ZM174.508 48.5897L174.163 49.5283L174.175 49.5327L174.508 48.5897ZM176.284 49.1437L176.544 48.178L176.538 48.1766L176.284 49.1437ZM179.238 49.9391L178.978 50.9047L178.984 50.9063L179.238 49.9391ZM181.767 50.763L181.414 51.6985L181.417 51.6997L181.767 50.763ZM184.451 52.1976L183.872 53.0127L183.882 53.0198L184.451 52.1976ZM186.582 54.4988L187.441 53.9868V53.9868L186.582 54.4988ZM186.184 62.2118L185.346 61.6673L185.343 61.6717L186.184 62.2118ZM182.605 65.2374L182.175 64.3344L182.173 64.3355L182.605 65.2374ZM171.497 65.351L171.091 66.2651L171.093 66.266L171.497 65.351ZM167.917 62.5385L167.104 63.121L167.107 63.1252L167.917 62.5385ZM166.454 58.3482V57.3482H165.38L165.457 58.4195L166.454 58.3482ZM170.091 58.3482L171.087 58.2623L171.008 57.3482H170.091V58.3482ZM171.199 61.0755L170.453 61.7423L170.463 61.7525L171.199 61.0755ZM173.67 62.6664L173.338 63.6096L173.349 63.6133L173.67 62.6664ZM180.531 62.5243L180.908 63.4506L180.915 63.4477L180.531 62.5243ZM183.074 60.6777L183.856 61.3002L183.86 61.2956L183.074 60.6777ZM183.201 55.5357L183.948 54.8706V54.8706L183.201 55.5357ZM181.071 54.0584L180.676 54.9771V54.9771L181.071 54.0584ZM178.216 53.0641L177.941 54.0257L177.948 54.0276L178.216 53.0641ZM174.636 52.0414L174.36 53.0025L174.361 53.0029L174.636 52.0414ZM169.238 49.2431L168.564 49.9811V49.9811L169.238 49.2431ZM168.571 40.2232L167.763 39.6343L167.762 39.6354L168.571 40.2232ZM172.15 37.3823L172.56 38.2944L172.563 38.2932L172.15 37.3823ZM182.193 37.3681L181.774 38.2762L181.779 38.2785L182.193 37.3681ZM185.659 40.0954L184.854 40.689L184.857 40.6933L185.659 40.0954ZM187.022 44.03V45.03H188.055L188.022 43.9978L187.022 44.03ZM183.613 44.03L184.606 43.9124C184.401 42.1796 183.547 40.7992 182.088 39.8417L181.539 40.6777L180.991 41.5138C181.956 42.1472 182.485 43.0017 182.62 44.1476L183.613 44.03ZM181.539 40.6777L182.088 39.8417C180.681 38.9182 178.993 38.4846 177.079 38.4846V39.4846V40.4846C178.688 40.4846 179.974 40.8464 180.991 41.5138L181.539 40.6777ZM177.079 39.4846V38.4846C175.685 38.4846 174.418 38.7101 173.302 39.1914L173.699 40.1096L174.095 41.0278C174.911 40.6757 175.898 40.4846 177.079 40.4846V39.4846ZM173.699 40.1096L173.299 39.1928C172.206 39.6688 171.309 40.3434 170.65 41.2333L171.454 41.8283L172.258 42.4233C172.679 41.8549 173.278 41.3837 174.098 41.0264L173.699 40.1096ZM171.454 41.8283L170.645 41.2401C169.987 42.1455 169.659 43.1814 169.659 44.3141H170.659H171.659C171.659 43.5908 171.861 42.9694 172.263 42.4165L171.454 41.8283ZM170.659 44.3141H169.659C169.659 45.2547 169.885 46.1213 170.379 46.8684L171.213 46.317L172.047 45.7655C171.802 45.3952 171.659 44.9266 171.659 44.3141H170.659ZM171.213 46.317L170.39 46.8847C170.848 47.55 171.432 48.1026 172.129 48.5413L172.662 47.6948L173.194 46.8483C172.717 46.5483 172.335 46.1824 172.036 45.7492L171.213 46.317ZM172.662 47.6948L172.139 48.5474C172.782 48.9416 173.457 49.2687 174.163 49.5283L174.508 48.5897L174.853 47.6511C174.271 47.4372 173.715 47.1677 173.184 46.8422L172.662 47.6948ZM174.508 48.5897L174.175 49.5327C174.84 49.7671 175.458 49.9604 176.029 50.1107L176.284 49.1437L176.538 48.1766C176.03 48.0428 175.465 47.8668 174.841 47.6467L174.508 48.5897ZM176.284 49.1437L176.024 50.1093L178.978 50.9047L179.238 49.9391L179.498 48.9735L176.544 48.178L176.284 49.1437ZM179.238 49.9391L178.984 50.9063C179.701 51.0944 180.51 51.3574 181.414 51.6985L181.767 50.763L182.12 49.8274C181.167 49.4678 180.291 49.1815 179.492 48.9719L179.238 49.9391ZM181.767 50.763L181.417 51.6997C182.269 52.0183 183.087 52.4547 183.872 53.0126L184.451 52.1976L185.031 51.3827C184.111 50.7285 183.139 50.2084 182.117 49.8263L181.767 50.763ZM184.451 52.1976L183.882 53.0198C184.621 53.5316 185.235 54.191 185.723 55.0107L186.582 54.4988L187.441 53.9868C186.812 52.9316 186.005 52.0569 185.021 51.3754L184.451 52.1976ZM186.582 54.4988L185.723 55.0107C186.169 55.7591 186.42 56.7225 186.42 57.9505H187.42H188.42C188.42 56.4512 188.112 55.1134 187.441 53.9868L186.582 54.4988ZM187.42 57.9505H186.42C186.42 59.3371 186.06 60.567 185.346 61.6673L186.184 62.2118L187.023 62.7564C187.956 61.3188 188.42 59.7078 188.42 57.9505H187.42ZM186.184 62.2118L185.343 61.6717C184.644 62.7606 183.605 63.6539 182.175 64.3344L182.605 65.2374L183.035 66.1404C184.748 65.3247 186.096 64.2009 187.026 62.752L186.184 62.2118ZM182.605 65.2374L182.173 64.3355C180.778 65.0031 179.036 65.3596 176.909 65.3596V66.3596V67.3596C179.251 67.3596 181.306 66.9679 183.037 66.1394L182.605 65.2374ZM176.909 66.3596V65.3596C174.931 65.3596 173.27 65.0402 171.9 64.4361L171.497 65.351L171.093 66.266C172.773 67.0066 174.72 67.3596 176.909 67.3596V66.3596ZM171.497 65.351L171.902 64.437C170.529 63.8277 169.483 62.9956 168.727 61.9519L167.917 62.5385L167.107 63.1252C168.094 64.4868 169.434 65.5297 171.091 66.2651L171.497 65.351ZM167.917 62.5385L168.73 61.9561C167.984 60.9153 167.553 59.6986 167.452 58.277L166.454 58.3482L165.457 58.4195C165.582 60.1796 166.127 61.7565 167.104 63.121L167.917 62.5385ZM166.454 58.3482V59.3482H170.091V58.3482V57.3482H166.454V58.3482ZM170.091 58.3482L169.094 58.4341C169.205 59.7164 169.645 60.8389 170.453 61.7423L171.199 61.0755L171.944 60.4087C171.464 59.8727 171.166 59.177 171.087 58.2623L170.091 58.3482ZM171.199 61.0755L170.463 61.7525C171.237 62.594 172.204 63.2099 173.338 63.6095L173.67 62.6664L174.002 61.7232C173.148 61.4221 172.467 60.9774 171.934 60.3984L171.199 61.0755ZM173.67 62.6664L173.349 63.6133C174.465 63.9924 175.654 64.1777 176.909 64.1777V63.1777V62.1777C175.853 62.1777 174.883 62.0222 173.992 61.7195L173.67 62.6664ZM176.909 63.1777V64.1777C178.362 64.1777 179.7 63.9422 180.908 63.4505L180.531 62.5243L180.154 61.5981C179.221 61.9777 178.145 62.1777 176.909 62.1777V63.1777ZM180.531 62.5243L180.915 63.4477C182.117 62.9477 183.111 62.2377 183.856 61.3001L183.074 60.6777L182.291 60.0554C181.786 60.6898 181.085 61.2108 180.147 61.601L180.531 62.5243ZM183.074 60.6777L183.86 61.2956C184.63 60.315 185.011 59.1667 185.011 57.8937H184.011H183.011C183.011 58.7419 182.767 59.4496 182.287 60.0599L183.074 60.6777ZM184.011 57.8937H185.011C185.011 56.7317 184.681 55.6935 183.948 54.8706L183.201 55.5357L182.455 56.2008C182.801 56.59 183.011 57.1238 183.011 57.8937H184.011ZM183.201 55.5357L183.948 54.8706C183.295 54.1373 182.457 53.566 181.466 53.1398L181.071 54.0584L180.676 54.9771C181.446 55.3084 182.028 55.722 182.455 56.2008L183.201 55.5357ZM181.071 54.0584L181.466 53.1398C180.54 52.7414 179.545 52.3955 178.483 52.1006L178.216 53.0641L177.948 54.0276C178.932 54.3009 179.84 54.6179 180.676 54.9771L181.071 54.0584ZM178.216 53.0641L178.49 52.1026L174.911 51.0799L174.636 52.0414L174.361 53.0029L177.941 54.0256L178.216 53.0641ZM174.636 52.0414L174.912 51.0803C172.743 50.4566 171.095 49.5855 169.913 48.5051L169.238 49.2431L168.564 49.9811C170.033 51.3249 171.984 52.3194 174.36 53.0025L174.636 52.0414ZM169.238 49.2431L169.913 48.5051C168.815 47.5009 168.25 46.1927 168.25 44.4846H167.25H166.25C166.25 46.6969 167.01 48.5611 168.564 49.9811L169.238 49.2431ZM167.25 44.4846H168.25C168.25 43.0476 168.634 41.8372 169.38 40.811L168.571 40.2232L167.762 39.6354C166.746 41.0334 166.25 42.664 166.25 44.4846H167.25ZM168.571 40.2232L169.379 40.8121C170.158 39.7429 171.209 38.9018 172.56 38.2944L172.15 37.3823L171.74 36.4702C170.099 37.2075 168.764 38.2603 167.763 39.6343L168.571 40.2232ZM172.15 37.3823L172.563 38.2932C173.924 37.6769 175.462 37.3596 177.193 37.3596V36.3596V35.3596C175.212 35.3596 173.388 35.724 171.738 36.4713L172.15 37.3823ZM177.193 36.3596V37.3596C178.947 37.3596 180.467 37.6737 181.774 38.2762L182.193 37.3681L182.612 36.46C181.002 35.7178 179.188 35.3596 177.193 35.3596V36.3596ZM182.193 37.3681L181.779 38.2785C183.101 38.8791 184.114 39.6862 184.854 40.689L185.659 40.0954L186.464 39.5017C185.499 38.1939 184.202 37.1828 182.607 36.4577L182.193 37.3681ZM185.659 40.0954L184.857 40.6933C185.594 41.6814 185.982 42.7947 186.023 44.0623L187.022 44.03L188.022 43.9978C187.968 42.3298 187.447 40.8199 186.46 39.4975L185.659 40.0954ZM187.022 44.03V43.03H183.613V44.03V45.03H187.022V44.03ZM197.701 65.8482L196.744 66.1397L196.96 66.8482H197.701V65.8482ZM191.053 44.03V43.03H189.703L190.096 44.3215L191.053 44.03ZM194.576 44.03L195.538 43.7583L195.332 43.03H194.576V44.03ZM199.292 60.7346L198.329 61.0063L198.535 61.7346H199.292V60.7346ZM199.519 60.7346V61.7346H200.278L200.482 61.0032L199.519 60.7346ZM204.178 44.03V43.03H203.419L203.215 43.7614L204.178 44.03ZM207.757 44.03L208.721 43.7636L208.519 43.03H207.757V44.03ZM212.36 60.6777L211.396 60.9442L211.599 61.6777H212.36V60.6777ZM212.587 60.6777V61.6777H213.343L213.549 60.9503L212.587 60.6777ZM217.303 44.03V43.03H216.547L216.341 43.7575L217.303 44.03ZM220.826 44.03L221.782 44.3215L222.176 43.03H220.826V44.03ZM214.178 65.8482V66.8482H214.919L215.135 66.1397L214.178 65.8482ZM210.882 65.8482L209.921 66.1221L210.127 66.8482H210.882V65.8482ZM206.11 49.0868L207.072 48.813L206.865 48.0868H206.11V49.0868ZM205.769 49.0868V48.0868H205.014L204.807 48.813L205.769 49.0868ZM200.996 65.8482V66.8482H201.751L201.958 66.1221L200.996 65.8482ZM197.701 65.8482L198.657 65.5567L192.01 43.7386L191.053 44.03L190.096 44.3215L196.744 66.1397L197.701 65.8482ZM191.053 44.03V45.03H194.576V44.03V43.03H191.053V44.03ZM194.576 44.03L193.613 44.3017L198.329 61.0063L199.292 60.7346L200.254 60.4629L195.538 43.7583L194.576 44.03ZM199.292 60.7346V61.7346H199.519V60.7346V59.7346H199.292V60.7346ZM199.519 60.7346L200.482 61.0032L205.141 44.2987L204.178 44.03L203.215 43.7614L198.556 60.4659L199.519 60.7346ZM204.178 44.03V45.03H207.757V44.03V43.03H204.178V44.03ZM207.757 44.03L206.794 44.2965L211.396 60.9442L212.36 60.6777L213.324 60.4113L208.721 43.7636L207.757 44.03ZM212.36 60.6777V61.6777H212.587V60.6777V59.6777H212.36V60.6777ZM212.587 60.6777L213.549 60.9503L218.265 44.3026L217.303 44.03L216.341 43.7575L211.625 60.4052L212.587 60.6777ZM217.303 44.03V45.03H220.826V44.03V43.03H217.303V44.03ZM220.826 44.03L219.869 43.7386L213.221 65.5567L214.178 65.8482L215.135 66.1397L221.782 44.3215L220.826 44.03ZM214.178 65.8482V64.8482H210.882V65.8482V66.8482H214.178V65.8482ZM210.882 65.8482L211.844 65.5743L207.072 48.813L206.11 49.0868L205.148 49.3607L209.921 66.1221L210.882 65.8482ZM206.11 49.0868V48.0868H205.769V49.0868V50.0868H206.11V49.0868ZM205.769 49.0868L204.807 48.813L200.034 65.5743L200.996 65.8482L201.958 66.1221L206.731 49.3607L205.769 49.0868ZM200.996 65.8482V64.8482H197.701V65.8482V66.8482H200.996V65.8482ZM227.914 65.5783L227.488 66.4832L227.494 66.4861L227.914 65.5783ZM225.229 63.2914L224.395 63.8425L224.397 63.8461L225.229 63.2914ZM224.973 56.6152L225.818 57.1508L225.821 57.1462L224.973 56.6152ZM229.675 53.7743L229.889 54.7512L229.896 54.7497L229.675 53.7743ZM232.701 53.2346L232.573 52.2427L232.571 52.243L232.701 53.2346ZM235.925 52.851L236.028 53.8458L236.038 53.8447L235.925 52.851ZM237.743 52.3823L237.254 51.5101L237.245 51.5154L237.743 52.3823ZM237.175 47.8652L236.459 48.5636L236.464 48.568L237.175 47.8652ZM229.959 47.7516L230.57 48.5436V48.5436L229.959 47.7516ZM228.042 49.9959L227.705 50.9377L228.564 51.2445L228.949 50.417L228.042 49.9959ZM224.86 48.8596L223.941 48.4656L223.522 49.4435L224.523 49.8013L224.86 48.8596ZM227.132 45.763L227.748 46.5515L227.749 46.5506L227.132 45.763ZM230.257 44.2005L230.51 45.1682L230.515 45.1667L230.257 44.2005ZM236.025 44.0016L235.84 44.9846L235.852 44.9866L236.025 44.0016ZM238.681 45.0101L238.166 45.8676L238.17 45.8701L238.681 45.0101ZM240.826 47.3255L239.95 47.8077V47.8077L240.826 47.3255ZM241.678 65.8482V66.8482H242.678V65.8482H241.678ZM238.326 65.8482H237.326V66.8482H238.326V65.8482ZM238.326 62.8937H239.326V61.8937H238.326V62.8937ZM238.155 62.8937V61.8937H237.526L237.254 62.4609L238.155 62.8937ZM237.019 64.4135L237.732 65.1144V65.1144L237.019 64.4135ZM234.902 65.7914L234.507 64.8728V64.8728L234.902 65.7914ZM235.542 62.567L235.048 61.6971L235.044 61.6993L235.542 62.567ZM237.615 60.5499L236.748 60.0516L236.744 60.0592L237.615 60.5499ZM238.326 54.8823H239.326V52.1202L237.557 54.2421L238.326 54.8823ZM237.388 55.351L237.658 56.3141L237.67 56.3104L237.388 55.351ZM235.74 55.7062L235.893 56.6946L235.905 56.6926L235.74 55.7062ZM233.936 55.9618L234.05 56.9554L234.064 56.9536L233.936 55.9618ZM232.53 56.1323L232.66 57.1239L232.661 57.1238L232.53 56.1323ZM230.087 56.6863L230.4 57.6362L230.407 57.6338L230.087 56.6863ZM228.269 57.8084L227.535 57.1296L227.534 57.1302L228.269 57.8084ZM228.88 62.4675L228.31 63.2898L228.321 63.2968L228.88 62.4675ZM231.678 66.3596V65.3596C230.424 65.3596 229.314 65.124 228.333 64.6706L227.914 65.5783L227.494 66.4861C228.767 67.0743 230.167 67.3596 231.678 67.3596V66.3596ZM227.914 65.5783L228.34 64.6735C227.37 64.2173 226.619 63.5729 226.061 62.7367L225.229 63.2914L224.397 63.8461C225.165 64.9985 226.204 65.8787 227.488 66.4831L227.914 65.5783ZM225.229 63.2914L226.064 62.7403C225.527 61.9278 225.235 60.9156 225.235 59.655H224.235H223.235C223.235 61.2353 223.605 62.6474 224.395 63.8424L225.229 63.2914ZM224.235 59.655H225.235C225.235 58.5286 225.457 57.7193 225.818 57.1508L224.973 56.6152L224.129 56.0797C223.505 57.0643 223.235 58.2814 223.235 59.655H224.235ZM224.973 56.6152L225.821 57.1462C226.221 56.5082 226.75 56.0122 227.423 55.6485L226.948 54.7687L226.473 53.8888C225.498 54.4153 224.711 55.1504 224.126 56.0843L224.973 56.6152ZM226.948 54.7687L227.423 55.6485C228.158 55.2515 228.978 54.9507 229.889 54.7512L229.675 53.7743L229.461 52.7975C228.383 53.0336 227.385 53.3957 226.473 53.8888L226.948 54.7687ZM229.675 53.7743L229.896 54.7497C230.87 54.5291 231.848 54.3547 232.83 54.2261L232.701 53.2346L232.571 52.243C231.527 52.3796 230.488 52.565 229.454 52.799L229.675 53.7743ZM232.701 53.2346L232.828 54.2264C234.15 54.0564 235.216 53.9298 236.028 53.8457L235.925 52.851L235.822 51.8564C234.987 51.9428 233.903 52.0718 232.573 52.2427L232.701 53.2346ZM235.925 52.851L236.038 53.8447C236.905 53.7461 237.68 53.5724 238.242 53.2492L237.743 52.3823L237.245 51.5154C237.049 51.6278 236.612 51.7666 235.812 51.8574L235.925 52.851ZM237.743 52.3823L238.233 53.2544C239.008 52.8193 239.326 52.0565 239.326 51.2459H238.326H237.326C237.326 51.3986 237.298 51.4633 237.29 51.4788C237.286 51.4863 237.284 51.4888 237.283 51.4902C237.281 51.4919 237.273 51.4993 237.254 51.5102L237.743 52.3823ZM238.326 51.2459H239.326V51.1323H238.326H237.326V51.2459H238.326ZM238.326 51.1323H239.326C239.326 49.5458 238.887 48.1752 237.887 47.1625L237.175 47.8652L236.464 48.568C236.997 49.1083 237.326 49.9158 237.326 51.1323H238.326ZM237.175 47.8652L237.891 47.1669C236.877 46.1282 235.421 45.7005 233.723 45.7005V46.7005V47.7005C235.113 47.7005 235.958 48.0493 236.459 48.5636L237.175 47.8652ZM233.723 46.7005V45.7005C231.988 45.7005 230.49 46.0798 229.349 46.9596L229.959 47.7516L230.57 48.5436C231.247 48.0219 232.259 47.7005 233.723 47.7005V46.7005ZM229.959 47.7516L229.349 46.9596C228.35 47.7292 227.589 48.5958 227.135 49.5748L228.042 49.9959L228.949 50.417C229.233 49.8052 229.75 49.1756 230.57 48.5436L229.959 47.7516ZM228.042 49.9959L228.378 49.0542L225.196 47.9178L224.86 48.8596L224.523 49.8013L227.705 50.9377L228.042 49.9959ZM224.86 48.8596L225.779 49.2535C226.294 48.0517 226.958 47.1674 227.748 46.5515L227.132 45.763L226.517 44.9745C225.413 45.8359 224.562 47.0159 223.941 48.4656L224.86 48.8596ZM227.132 45.763L227.749 46.5506C228.602 45.8831 229.521 45.4258 230.51 45.1682L230.257 44.2005L230.005 43.2328C228.74 43.5623 227.576 44.1466 226.516 44.9753L227.132 45.763ZM230.257 44.2005L230.515 45.1667C231.573 44.8845 232.604 44.7459 233.61 44.7459V43.7459V42.7459C232.418 42.7459 231.214 42.9104 230 43.2342L230.257 44.2005ZM233.61 43.7459V44.7459C234.233 44.7459 234.974 44.822 235.84 44.9845L236.025 44.0016L236.209 43.0187C235.257 42.8403 234.388 42.7459 233.61 42.7459V43.7459ZM236.025 44.0016L235.852 44.9866C236.642 45.1251 237.412 45.4152 238.166 45.8676L238.681 45.0101L239.195 44.1526C238.245 43.5824 237.244 43.2001 236.197 43.0166L236.025 44.0016ZM238.681 45.0101L238.17 45.8701C238.854 46.2755 239.452 46.9041 239.95 47.8077L240.826 47.3255L241.702 46.8433C241.063 45.6825 240.231 44.7675 239.191 44.1502L238.681 45.0101ZM240.826 47.3255L239.95 47.8077C240.407 48.6388 240.678 49.8351 240.678 51.4732H241.678H242.678C242.678 49.6454 242.381 48.0765 241.702 46.8433L240.826 47.3255ZM241.678 51.4732H240.678V65.8482H241.678H242.678V51.4732H241.678ZM241.678 65.8482V64.8482H238.326V65.8482V66.8482H241.678V65.8482ZM238.326 65.8482H239.326V62.8937H238.326H237.326V65.8482H238.326ZM238.326 62.8937V61.8937H238.155V62.8937V63.8937H238.326V62.8937ZM238.155 62.8937L237.254 62.4609C237.09 62.8021 236.79 63.2199 236.306 63.7127L237.019 64.4135L237.732 65.1144C238.309 64.5277 238.766 63.9322 239.057 63.3264L238.155 62.8937ZM237.019 64.4135L236.306 63.7127C235.887 64.1388 235.299 64.5321 234.507 64.8728L234.902 65.7914L235.298 66.71C236.267 66.2931 237.09 65.7678 237.732 65.1144L237.019 64.4135ZM234.902 65.7914L234.507 64.8728C233.785 65.1835 232.853 65.3596 231.678 65.3596V66.3596V67.3596C233.041 67.3596 234.259 67.1568 235.298 66.71L234.902 65.7914ZM232.189 63.3482V64.3482C233.644 64.3482 234.943 64.0623 236.039 63.4346L235.542 62.567L235.044 61.6993C234.322 62.1133 233.386 62.3482 232.189 62.3482V63.3482ZM235.542 62.567L236.035 63.4368C237.093 62.8371 237.923 62.0409 238.487 61.0406L237.615 60.5499L236.744 60.0592C236.379 60.7067 235.828 61.2551 235.048 61.6971L235.542 62.567ZM237.615 60.5499L238.482 61.0482C239.039 60.0799 239.326 59.0425 239.326 57.9505H238.326H237.326C237.326 58.6766 237.139 59.3722 236.748 60.0516L237.615 60.5499ZM238.326 57.9505H239.326V54.8823H238.326H237.326V57.9505H238.326ZM238.326 54.8823L237.557 54.2421C237.611 54.178 237.634 54.1849 237.538 54.2329C237.452 54.2758 237.313 54.3307 237.106 54.3917L237.388 55.351L237.67 56.3104C237.946 56.2293 238.205 56.1351 238.432 56.0218C238.648 55.9135 238.898 55.757 239.094 55.5225L238.326 54.8823ZM237.388 55.351L237.119 54.3881C236.688 54.5087 236.175 54.6199 235.576 54.7198L235.74 55.7062L235.905 56.6926C236.556 56.5841 237.141 56.4586 237.658 56.314L237.388 55.351ZM235.74 55.7062L235.588 54.7178C234.98 54.8113 234.387 54.8954 233.809 54.9701L233.936 55.9618L234.064 56.9536C234.66 56.8768 235.269 56.7904 235.893 56.6945L235.74 55.7062ZM233.936 55.9618L233.822 54.9684C233.242 55.035 232.767 55.0925 232.4 55.1408L232.53 56.1323L232.661 57.1238C233.013 57.0774 233.475 57.0213 234.05 56.9553L233.936 55.9618ZM232.53 56.1323L232.401 55.1407C231.471 55.262 230.592 55.4603 229.767 55.7388L230.087 56.6863L230.407 57.6338C231.097 57.4009 231.847 57.2299 232.66 57.1239L232.53 56.1323ZM230.087 56.6863L229.774 55.7364C228.89 56.0275 228.13 56.4851 227.535 57.1296L228.269 57.8084L229.003 58.4873C229.335 58.1279 229.788 57.8374 230.4 57.6362L230.087 56.6863ZM228.269 57.8084L227.534 57.1302C226.866 57.8535 226.587 58.7927 226.587 59.8255H227.587H228.587C228.587 59.1537 228.762 58.7482 229.004 58.4867L228.269 57.8084ZM227.587 59.8255H226.587C226.587 61.2757 227.146 62.4833 228.31 63.2897L228.88 62.4675L229.449 61.6453C228.89 61.2586 228.587 60.7048 228.587 59.8255H227.587ZM228.88 62.4675L228.321 63.2968C229.397 64.0219 230.709 64.3482 232.189 64.3482V63.3482V62.3482C230.999 62.3482 230.105 62.0874 229.439 61.6383L228.88 62.4675ZM247.797 74.03H246.797V75.03H247.797V74.03ZM247.797 44.03V43.03H246.797V44.03H247.797ZM251.035 44.03H252.035V43.03H251.035V44.03ZM251.035 47.4959H250.035V48.4959H251.035V47.4959ZM251.433 47.4959V48.4959H251.976L252.271 48.0409L251.433 47.4959ZM252.456 46.0471L251.654 45.4491L251.653 45.4512L252.456 46.0471ZM254.359 44.4562L254.85 45.3275L254.853 45.3256L254.359 44.4562ZM262.598 45.1238L263.146 44.2874V44.2874L262.598 45.1238ZM265.879 49.03L266.785 48.6074V48.6074L265.879 49.03ZM265.879 61.0045L266.785 61.4271L266.786 61.4251L265.879 61.0045ZM262.612 64.9249L263.163 65.7596L263.167 65.757L262.612 64.9249ZM254.43 65.6067L253.94 66.4786L253.948 66.4827L254.43 65.6067ZM252.484 64.0016L251.684 64.6016L251.689 64.6077L252.484 64.0016ZM251.433 62.4959L252.283 61.9696L251.99 61.4959H251.433V62.4959ZM251.149 62.4959V61.4959H250.149V62.4959H251.149ZM251.149 74.03V75.03H252.149V74.03H251.149ZM251.816 59.2999L250.883 59.6579L250.884 59.6603L251.816 59.2999ZM253.933 62.2402L253.325 63.0344L253.33 63.0383L253.933 62.2402ZM260.851 62.1834L261.469 62.9689L261.47 62.9681L260.851 62.1834ZM262.981 59.1721L262.047 58.8164L262.045 58.8202L262.981 59.1721ZM262.995 50.7914L262.059 51.1417L262.062 51.1504L262.995 50.7914ZM260.879 47.851L260.265 48.6404L260.274 48.6472L260.879 47.851ZM253.905 47.7942L254.497 48.6001L254.502 48.5962L253.905 47.7942ZM251.802 50.6635L252.735 51.0249L252.736 51.0225L251.802 50.6635ZM247.797 74.03H248.797V44.03H247.797H246.797V74.03H247.797ZM247.797 44.03V45.03H251.035V44.03V43.03H247.797V44.03ZM251.035 44.03H250.035V47.4959H251.035H252.035V44.03H251.035ZM251.035 47.4959V48.4959H251.433V47.4959V46.4959H251.035V47.4959ZM251.433 47.4959L252.271 48.0409C252.502 47.6867 252.829 47.2222 253.259 46.6429L252.456 46.0471L251.653 45.4512C251.211 46.0462 250.857 46.5476 250.594 46.9509L251.433 47.4959ZM252.456 46.0471L253.257 46.645C253.6 46.1861 254.116 45.7409 254.85 45.3275L254.359 44.4562L253.868 43.5849C252.955 44.0995 252.202 44.7149 251.654 45.4491L252.456 46.0471ZM254.359 44.4562L254.853 45.3256C255.48 44.9692 256.415 44.7459 257.74 44.7459V43.7459V42.7459C256.224 42.7459 254.904 42.9961 253.865 43.5867L254.359 44.4562ZM257.74 43.7459V44.7459C259.402 44.7459 260.827 45.1586 262.05 45.9601L262.598 45.1238L263.146 44.2874C261.566 43.2519 259.752 42.7459 257.74 42.7459V43.7459ZM262.598 45.1238L262.05 45.9601C263.279 46.7658 264.256 47.9165 264.973 49.4526L265.879 49.03L266.785 48.6074C265.93 46.7724 264.72 45.3189 263.146 44.2874L262.598 45.1238ZM265.879 49.03L264.973 49.4526C265.684 50.9788 266.058 52.8172 266.058 54.9959H267.058H268.058C268.058 52.5914 267.646 50.4524 266.785 48.6074L265.879 49.03ZM267.058 54.9959H266.058C266.058 57.1948 265.684 59.0479 264.972 60.5838L265.879 61.0045L266.786 61.4251C267.646 59.5709 268.058 57.4183 268.058 54.9959H267.058ZM265.879 61.0045L264.973 60.5818C264.255 62.1204 263.28 63.2776 262.057 64.0929L262.612 64.9249L263.167 65.757C264.728 64.7162 265.931 63.2597 266.785 61.4271L265.879 61.0045ZM262.612 64.9249L262.061 64.0902C260.847 64.8912 259.437 65.3027 257.797 65.3027V66.3027V67.3027C259.792 67.3027 261.592 66.7957 263.163 65.7596L262.612 64.9249ZM257.797 66.3027V65.3027C256.492 65.3027 255.555 65.0846 254.912 64.7307L254.43 65.6067L253.948 66.4827C254.991 67.0568 256.298 67.3027 257.797 67.3027V66.3027ZM254.43 65.6067L254.92 64.7349C254.163 64.3097 253.631 63.8572 253.279 63.3956L252.484 64.0016L251.689 64.6077C252.246 65.3392 253.011 65.9568 253.94 66.4786L254.43 65.6067ZM252.484 64.0016L253.284 63.4016C252.838 62.8067 252.507 62.3315 252.283 61.9696L251.433 62.4959L250.583 63.0223C250.851 63.4559 251.221 63.9844 251.684 64.6016L252.484 64.0016ZM251.433 62.4959V61.4959H251.149V62.4959V63.4959H251.433V62.4959ZM251.149 62.4959H250.149V74.03H251.149H252.149V62.4959H251.149ZM251.149 74.03V73.03H247.797V74.03V75.03H251.149V74.03ZM251.092 54.9391H250.092C250.092 56.683 250.347 58.262 250.883 59.6579L251.816 59.2999L252.75 58.9419C252.32 57.8189 252.092 56.4907 252.092 54.9391H251.092ZM251.816 59.2999L250.884 59.6603C251.423 61.0563 252.23 62.1966 253.325 63.0344L253.933 62.2402L254.541 61.4461C253.779 60.8634 253.176 60.0435 252.749 58.9395L251.816 59.2999ZM253.933 62.2402L253.33 63.0383C254.458 63.8899 255.815 64.2914 257.342 64.2914V63.2914V62.2914C256.179 62.2914 255.264 61.9921 254.536 61.4422L253.933 62.2402ZM257.342 63.2914V64.2914C258.927 64.2914 260.326 63.8698 261.469 62.9689L260.851 62.1834L260.232 61.3979C259.5 61.9743 258.56 62.2914 257.342 62.2914V63.2914ZM260.851 62.1834L261.47 62.9681C262.576 62.0946 263.387 60.9337 263.917 59.524L262.981 59.1721L262.045 58.8202C261.628 59.9294 261.019 60.7761 260.231 61.3988L260.851 62.1834ZM262.981 59.1721L263.916 59.5278C264.448 58.1301 264.706 56.5964 264.706 54.9391H263.706H262.706C262.706 56.3879 262.481 57.6761 262.047 58.8164L262.981 59.1721ZM263.706 54.9391H264.706C264.706 53.302 264.453 51.7951 263.929 50.4324L262.995 50.7914L262.062 51.1504C262.485 52.2498 262.706 53.5081 262.706 54.9391H263.706ZM262.995 50.7914L263.932 50.441C263.41 49.0443 262.598 47.9016 261.484 47.0549L260.879 47.851L260.274 48.6472C261.054 49.2399 261.653 50.0574 262.059 51.1417L262.995 50.7914ZM260.879 47.851L261.493 47.0617C260.347 46.1707 258.94 45.7573 257.342 45.7573V46.7573V47.7573C258.585 47.7573 259.536 48.0731 260.265 48.6404L260.879 47.851ZM257.342 46.7573V45.7573C255.803 45.7573 254.437 46.1506 253.307 46.9923L253.905 47.7942L254.502 48.5962C255.228 48.0553 256.154 47.7573 257.342 47.7573V46.7573ZM253.905 47.7942L253.312 46.9883C252.209 47.7992 251.401 48.9216 250.869 50.3046L251.802 50.6635L252.736 51.0225C253.151 49.9434 253.744 49.1529 254.497 48.6001L253.905 47.7942ZM251.802 50.6635L250.87 50.3021C250.342 51.6632 250.092 53.2157 250.092 54.9391H251.092H252.092C252.092 53.4049 252.315 52.107 252.735 51.0249L251.802 50.6635Z" fill="black" mask="url(#path-5-outside-1_1_3)"/>
<defs>
<filter id="filter0_i_1_3" x="10.4046" y="15.5893" width="65.0289" height="68.9554" filterUnits="userSpaceOnUse" color-interpolation-filters="sRGB">
<feFlood flood-opacity="0" result="BackgroundImageFix"/>
<feBlend mode="normal" in="SourceGraphic" in2="BackgroundImageFix" result="shape"/>
<feColorMatrix in="SourceAlpha" type="matrix" values="0 0 0 0 0 0 0 0 0 0 0 0 0 0 0 0 0 0 127 0" result="hardAlpha"/>
<feOffset dy="4"/>
<feGaussianBlur stdDeviation="2"/>
<feComposite in2="hardAlpha" operator="arithmetic" k2="-1" k3="1"/>
<feColorMatrix type="matrix" values="0 0 0 0 0 0 0 0 0 0 0 0 0 0 0 0 0 0 0.25 0"/>
<feBlend mode="normal" in2="shape" result="effect1_innerShadow_1_3"/>
</filter>
</defs>
</svg>
